<?xml version="1.0" standalone="no"?>
<!DOCTYPE svg PUBLIC "-//W3C//DTD SVG 20010904//EN"
 "http://www.w3.org/TR/2001/REC-SVG-20010904/DTD/svg10.dtd">
<svg version="1.0" xmlns="http://www.w3.org/2000/svg"
 width="500.000000pt" height="500.000000pt" viewBox="0 0 500.000000 500.000000"
 preserveAspectRatio="xMidYMid meet">

<g transform="translate(0.000000,500.000000) scale(0.100000,-0.100000)"
fill="#000000" stroke="none">
<path d="M1985 3484 c-11 -3 -30 -15 -42 -27 -23 -20 -23 -22 -23 -316 1 -217
4 -300 13 -312 28 -36 52 -39 312 -39 l256 0 -3 -87 -3 -88 -83 -8 c-124 -12
-256 -48 -260 -71 -7 -35 13 -36 113 -9 88 23 119 26 260 26 140 0 172 -3 255
-25 52 -14 98 -24 103 -21 20 12 5 42 -25 52 -78 24 -162 42 -232 48 l-76 6 0
87 0 87 137 6 c75 4 187 7 250 7 l113 0 0 25 0 25 -528 0 c-397 0 -531 3 -540
12 -16 16 -17 520 -2 549 10 18 27 19 540 19 l530 0 0 25 0 25 -397 0 c-219 0
-454 2 -523 5 -69 2 -134 2 -145 -1z"/>
<path d="M1990 3221 l0 -107 104 -16 c103 -15 104 -16 167 -69 114 -97 235
-159 253 -130 4 6 20 8 37 4 25 -5 31 -2 36 15 3 13 15 22 32 24 18 2 27 10
29 26 3 17 10 22 31 22 31 0 47 14 53 44 2 12 -4 20 -17 22 -11 1 -25 10 -31
18 -6 9 -15 16 -20 16 -23 1 -77 66 -79 95 -1 6 -7 9 -14 7 -7 -1 -20 3 -27 9
-12 9 -19 7 -37 -10 -13 -11 -27 -21 -31 -21 -4 0 -14 -6 -21 -14 -22 -21 -59
-15 -63 12 -2 12 0 22 5 22 5 0 9 10 10 21 3 32 29 56 81 70 l47 14 -65 3
c-44 2 -86 -4 -127 -16 -56 -18 -68 -18 -120 -6 -32 7 -97 22 -145 32 l-88 20
0 -107z"/>
<path d="M2900 3300 c0 -5 5 -10 10 -10 6 0 10 5 10 10 0 6 -4 10 -10 10 -5 0
-10 -4 -10 -10z"/>
<path d="M2975 3270 c3 -5 8 -10 11 -10 2 0 4 5 4 10 0 6 -5 10 -11 10 -5 0
-7 -4 -4 -10z"/>
<path d="M2815 3240 c3 -5 8 -10 11 -10 2 0 4 5 4 10 0 6 -5 10 -11 10 -5 0
-7 -4 -4 -10z"/>
<path d="M2860 3240 c0 -5 5 -10 10 -10 6 0 10 5 10 10 0 6 -4 10 -10 10 -5 0
-10 -4 -10 -10z"/>
<path d="M2925 3210 c3 -5 8 -10 11 -10 2 0 4 5 4 10 0 6 -5 10 -11 10 -5 0
-7 -4 -4 -10z"/>
<path d="M2435 3200 c-3 -5 -1 -10 4 -10 6 0 11 5 11 10 0 6 -2 10 -4 10 -3 0
-8 -4 -11 -10z"/>
<path d="M2860 3189 c0 -5 5 -7 10 -4 6 3 10 8 10 11 0 2 -4 4 -10 4 -5 0 -10
-5 -10 -11z"/>
<path d="M2730 3140 c0 -5 5 -10 10 -10 6 0 10 5 10 10 0 6 -4 10 -10 10 -5 0
-10 -4 -10 -10z"/>
<path d="M1535 2204 c-40 -10 -80 -28 -99 -43 -50 -44 -71 -146 -43 -214 23
-54 87 -104 145 -112 155 -21 265 86 238 230 -8 40 -55 99 -96 120 -30 15
-114 26 -145 19z m100 -120 c65 -70 -2 -181 -90 -148 -21 9 -45 56 -45 92 0
40 41 82 80 82 21 0 39 -9 55 -26z"/>
<path d="M1950 2199 c-45 -14 -96 -53 -114 -87 -91 -177 100 -346 285 -251 55
28 57 38 15 76 l-37 34 -26 -21 c-34 -26 -76 -25 -109 3 -21 19 -27 32 -27 67
0 35 6 48 27 67 34 29 75 29 110 2 l27 -22 35 34 c19 18 34 36 34 41 0 4 -20
19 -44 33 -50 29 -124 39 -176 24z"/>
<path d="M900 2021 l0 -181 55 0 54 0 3 78 3 77 39 -63 c33 -54 42 -63 64 -60
20 2 35 17 62 63 l35 60 3 -78 3 -77 54 0 55 0 0 143 c0 78 3 159 6 180 l7 37
-55 0 -56 0 -57 -96 -57 -96 -57 94 -58 93 -51 3 -52 3 0 -180z"/>
<path d="M2210 2020 l0 -180 60 0 60 0 0 49 c0 78 19 81 70 11 l43 -60 69 0
c37 0 68 1 68 3 0 2 -31 46 -70 97 -38 51 -70 97 -70 101 0 4 30 40 67 81 l68
73 -63 3 -64 3 -58 -63 -59 -63 -1 63 0 62 -60 0 -60 0 0 -180z"/>
<path d="M2600 2020 l0 -180 40 0 39 0 3 101 3 101 49 -82 c63 -104 73 -104
141 10 l50 84 3 -107 3 -107 34 0 35 0 0 180 0 180 -32 0 c-31 0 -36 -6 -97
-111 -74 -128 -59 -130 -148 19 -52 87 -57 92 -89 92 l-34 0 0 -180z"/>
<path d="M3127 2027 c-42 -95 -77 -176 -77 -180 0 -4 18 -7 39 -7 36 0 40 3
55 40 l16 40 84 0 84 0 16 -40 c15 -38 18 -40 61 -40 39 0 43 2 37 18 -5 9
-28 60 -53 112 -25 52 -58 125 -74 163 -29 67 -29 67 -70 67 l-41 0 -77 -173z
m172 -39 c1 -5 -24 -8 -55 -8 -63 0 -62 -2 -21 90 l19 45 28 -60 c16 -33 29
-63 29 -67z"/>
<path d="M3440 2165 l0 -35 59 0 60 0 -2 -145 -2 -145 43 0 42 0 0 145 0 145
55 0 55 0 0 35 0 35 -155 0 -155 0 0 -35z"/>
<path d="M3800 2020 l0 -180 141 0 140 0 -3 33 -3 32 -97 3 -98 3 0 39 0 40
85 0 85 0 0 30 0 29 -82 3 -83 3 -3 38 -3 37 95 0 96 0 0 35 0 35 -135 0 -135
0 0 -180z"/>
<path d="M1212 1674 c-23 -46 -22 -68 0 -46 15 15 58 16 58 2 0 -5 7 -10 15
-10 12 0 10 10 -10 50 -14 28 -29 50 -33 50 -4 0 -18 -21 -30 -46z m38 1 c0
-8 -4 -15 -10 -15 -5 0 -7 7 -4 15 4 8 8 15 10 15 2 0 4 -7 4 -15z"/>
<path d="M1342 1711 c-21 -13 -10 -46 16 -49 30 -5 28 -22 -3 -22 -14 0 -25
-4 -25 -10 0 -16 56 -11 71 6 11 14 10 18 -6 30 -10 8 -25 14 -32 14 -7 0 -13
5 -13 11 0 7 10 9 25 6 16 -3 24 0 22 7 -5 14 -38 19 -55 7z"/>
<path d="M1451 1706 c-16 -19 -7 -34 27 -48 l27 -11 -35 -7 c-26 -5 -31 -8
-18 -14 29 -13 63 -3 66 21 3 17 -3 24 -22 29 -29 7 -36 27 -8 22 11 -2 20 2
21 7 3 16 -45 17 -58 1z"/>
<path d="M1560 1670 l0 -50 40 0 c22 0 40 5 40 10 0 6 -13 10 -30 10 -16 0
-30 5 -30 10 0 6 11 10 25 10 14 0 25 5 25 10 0 6 -12 10 -27 10 -14 0 -23 3
-19 7 4 4 15 8 23 8 9 0 18 6 20 13 3 8 -7 12 -31 12 l-36 0 0 -50z"/>
<path d="M1680 1695 c0 -18 8 -29 28 -37 l27 -12 -32 -4 c-43 -4 -42 -22 1
-22 41 0 65 23 46 45 -7 8 -21 15 -32 15 -10 0 -16 5 -13 10 3 6 15 10 26 10
11 0 17 5 14 10 -3 6 -19 10 -36 10 -24 0 -29 -4 -29 -25z"/>
<path d="M1802 1708 c-20 -20 -14 -35 21 -49 l32 -13 -32 -3 c-46 -6 -41 -25
4 -21 47 4 57 32 19 49 -31 14 -35 34 -5 26 13 -3 19 -1 16 6 -5 17 -40 20
-55 5z"/>
<path d="M1975 1703 c5 -10 13 -33 19 -50 11 -34 26 -44 26 -19 0 8 9 31 21
50 22 38 10 50 -15 15 l-14 -21 -14 21 c-16 25 -33 28 -23 4z"/>
<path d="M2107 1702 c-21 -23 -22 -46 -1 -66 22 -23 60 -20 78 6 20 29 20 34
-4 58 -25 25 -52 26 -73 2z m58 -32 c0 -18 -6 -26 -21 -28 -26 -4 -40 24 -23
45 18 21 44 11 44 -17z"/>
<path d="M2240 1682 c0 -43 14 -62 47 -62 27 0 45 31 41 68 -5 40 -23 33 -26
-11 -3 -30 -7 -37 -20 -35 -12 2 -18 15 -20 41 -4 49 -22 48 -22 -1z"/>
<path d="M2377 1713 c-4 -3 -7 -26 -7 -50 0 -32 4 -43 15 -43 8 0 15 7 15 15
0 8 4 15 9 15 5 0 11 -7 15 -15 3 -8 13 -15 22 -15 13 0 14 3 5 14 -9 11 -9
19 1 36 11 18 10 23 -6 36 -21 15 -58 19 -69 7z m53 -28 c0 -8 -7 -15 -15 -15
-8 0 -15 7 -15 15 0 8 7 15 15 15 8 0 15 -7 15 -15z"/>
<path d="M2570 1670 c0 -27 5 -50 10 -50 6 0 10 6 10 14 0 9 12 16 27 18 54 6
37 68 -18 68 -28 0 -29 -2 -29 -50z m58 13 c2 -8 -5 -13 -17 -13 -12 0 -21 6
-21 16 0 18 31 15 38 -3z"/>
<path d="M2700 1670 c0 -27 5 -50 10 -50 6 0 10 7 10 15 0 8 5 15 10 15 6 0
13 -7 16 -15 4 -8 13 -15 21 -15 12 0 13 3 4 14 -8 10 -9 16 -1 21 31 19 -3
65 -49 65 -18 0 -21 -6 -21 -50z m58 13 c2 -8 -5 -13 -17 -13 -12 0 -21 6 -21
16 0 18 31 15 38 -3z"/>
<path d="M2827 1713 c-4 -3 -7 -26 -7 -50 l0 -43 40 0 c22 0 40 5 40 10 0 6
-11 10 -25 10 -14 0 -25 5 -25 10 0 6 9 10 20 10 11 0 20 5 20 10 0 6 -9 10
-20 10 -11 0 -20 5 -20 10 0 6 12 10 26 10 14 0 23 4 19 10 -7 11 -58 14 -68
3z"/>
<path d="M2947 1713 c-4 -3 -7 -26 -7 -50 0 -32 4 -43 15 -43 8 0 15 7 15 15
0 9 9 15 24 15 33 0 46 38 20 57 -19 14 -56 17 -67 6z m53 -28 c0 -8 -7 -15
-15 -15 -8 0 -15 7 -15 15 0 8 7 15 15 15 8 0 15 -7 15 -15z"/>
<path d="M3082 1674 c-23 -46 -22 -68 0 -46 15 15 58 16 58 2 0 -5 7 -10 15
-10 12 0 10 10 -10 50 -14 28 -29 50 -33 50 -4 0 -18 -21 -30 -46z m38 1 c0
-8 -4 -15 -10 -15 -5 0 -7 7 -4 15 4 8 8 15 10 15 2 0 4 -7 4 -15z"/>
<path d="M3200 1670 c0 -36 4 -50 14 -50 8 0 17 6 20 13 5 10 7 10 12 0 11
-25 32 -12 39 24 8 43 -10 63 -57 63 -27 0 -28 -2 -28 -50z m55 20 c3 -6 -1
-13 -10 -16 -19 -8 -30 0 -20 15 8 14 22 14 30 1z"/>
<path d="M3340 1674 c-23 -53 -21 -61 8 -43 17 11 25 11 46 -1 14 -7 28 -11
31 -9 7 7 -41 93 -54 97 -6 2 -20 -18 -31 -44z m40 1 c0 -8 -4 -15 -10 -15 -5
0 -7 7 -4 15 4 8 8 15 10 15 2 0 4 -7 4 -15z"/>
<path d="M3450 1710 c0 -5 7 -10 15 -10 11 0 15 -11 15 -40 0 -29 4 -40 15
-40 11 0 15 11 15 40 0 29 4 40 15 40 8 0 15 5 15 10 0 6 -20 10 -45 10 -25 0
-45 -4 -45 -10z"/>
<path d="M3576 1713 c-3 -3 -6 -26 -6 -50 0 -32 4 -43 15 -43 11 0 15 12 15
44 0 43 -10 63 -24 49z"/>
<path d="M3657 1702 c-21 -23 -22 -46 -1 -66 22 -23 60 -20 78 6 20 29 20 34
-4 58 -25 25 -52 26 -73 2z m58 -32 c0 -18 -6 -26 -21 -28 -26 -4 -40 24 -23
45 18 21 44 11 44 -17z"/>
<path d="M3790 1670 c0 -27 5 -50 10 -50 6 0 10 12 10 28 l1 27 24 -27 c35
-40 45 -35 45 23 0 53 -19 66 -30 19 l-6 -23 -17 26 c-26 40 -37 33 -37 -23z"/>
</g>
</svg>
