<?xml version="1.0" standalone="no"?>
<!DOCTYPE svg PUBLIC "-//W3C//DTD SVG 20010904//EN"
 "http://www.w3.org/TR/2001/REC-SVG-20010904/DTD/svg10.dtd">
<svg version="1.0" xmlns="http://www.w3.org/2000/svg"
 width="500.000000pt" height="500.000000pt" viewBox="0 0 500.000000 500.000000"
 preserveAspectRatio="xMidYMid meet">

<g transform="translate(0.000000,500.000000) scale(0.100000,-0.100000)"
fill="#000000" stroke="none">
<path d="M2290 3680 c-9 -6 -10 -10 -3 -10 6 0 15 5 18 10 8 12 4 12 -15 0z"/>
<path d="M3040 3586 c0 -2 8 -10 18 -17 15 -13 16 -12 3 4 -13 16 -21 21 -21
13z"/>
<path d="M3131 3516 c-9 -11 -9 -16 1 -22 7 -4 10 -4 6 1 -4 4 -3 14 3 22 6 7
9 13 6 13 -2 0 -10 -6 -16 -14z"/>
<path d="M3160 3480 c0 -5 5 -10 11 -10 5 0 7 5 4 10 -3 6 -8 10 -11 10 -2 0
-4 -4 -4 -10z"/>
<path d="M1942 3457 c-22 -23 -22 -28 -22 -318 1 -215 4 -298 13 -310 28 -36
52 -39 312 -39 l256 0 -3 -87 -3 -88 -75 -7 c-146 -15 -270 -50 -270 -78 0
-10 4 -21 9 -24 5 -4 53 6 108 21 89 25 113 27 263 27 144 -1 177 -4 257 -26
51 -14 95 -23 98 -20 3 3 5 13 5 23 0 14 -14 23 -53 34 -76 22 -203 45 -248
45 l-39 0 0 90 0 90 30 2 c17 0 53 2 80 4 28 1 127 2 221 3 111 1 168 4 164
11 -9 14 8 12 25 -2 12 -11 12 -10 1 5 -7 9 -10 17 -5 17 5 0 2 5 -6 10 -9 6
-218 10 -540 10 -396 0 -529 3 -538 12 -18 18 -17 541 1 557 10 7 171 12 538
13 517 3 524 3 522 23 -1 19 -1 20 12 1 8 -10 12 -24 8 -30 -3 -6 -2 -8 2 -4
5 5 9 19 11 33 l3 24 -558 1 -557 0 -22 -23z"/>
<path d="M3206 3468 c3 -5 10 -6 15 -3 13 9 11 12 -6 12 -8 0 -12 -4 -9 -9z"/>
<path d="M3253 3444 c4 -4 -1 -16 -10 -27 -10 -11 -13 -17 -6 -14 6 4 13 4 16
0 2 -5 2 -2 1 4 -2 7 4 16 13 21 13 8 13 10 -3 16 -10 4 -15 4 -11 0z"/>
<path d="M3215 3429 c-4 -6 -5 -12 -2 -15 2 -3 7 2 10 11 7 17 1 20 -8 4z"/>
<path d="M3320 3370 c15 -13 17 -19 8 -23 -7 -2 -11 -7 -8 -10 3 -3 12 -2 20
3 11 7 11 12 2 23 -7 7 -10 16 -7 18 2 3 -5 6 -16 6 -21 2 -21 2 1 -17z"/>
<path d="M3287 3349 c7 -7 15 -10 18 -7 3 3 -2 9 -12 12 -14 6 -15 5 -6 -5z"/>
<path d="M3366 3327 c3 -10 9 -15 12 -12 3 3 0 11 -7 18 -10 9 -11 8 -5 -6z"/>
<path d="M3336 3321 c-3 -5 1 -11 9 -14 9 -4 12 -1 8 9 -6 16 -10 17 -17 5z"/>
<path d="M1992 3218 l3 -102 101 -17 101 -17 85 -69 c108 -86 193 -131 219
-115 10 7 32 9 49 5 26 -5 32 -2 37 15 3 13 15 22 32 24 18 2 27 10 29 26 3
17 10 22 32 22 23 0 33 7 45 30 9 17 13 31 10 31 -3 1 -9 2 -15 3 -5 0 -19 9
-30 19 -11 9 -24 17 -28 17 -21 1 -76 68 -77 94 0 5 -7 10 -15 12 -8 1 -22 5
-31 8 -9 4 -23 -2 -34 -14 -10 -11 -24 -20 -30 -20 -7 0 -16 -7 -19 -16 -9
-25 -60 -14 -64 14 -2 12 2 22 8 22 6 0 9 4 6 8 -3 5 3 22 13 39 14 22 32 34
67 44 l49 14 -65 3 c-44 2 -86 -4 -128 -17 l-62 -19 -127 29 c-71 16 -136 29
-146 29 -16 0 -17 -10 -15 -102z"/>
<path d="M3480 3316 c0 -2 8 -10 18 -17 15 -13 16 -12 3 4 -13 16 -21 21 -21
13z"/>
<path d="M2900 3300 c0 -5 5 -10 10 -10 6 0 10 5 10 10 0 6 -4 10 -10 10 -5 0
-10 -4 -10 -10z"/>
<path d="M3387 3303 c-4 -3 -7 -11 -7 -17 0 -6 5 -4 10 4 7 10 10 11 11 3 1
-7 2 -18 3 -25 1 -15 23 -22 31 -9 3 7 0 8 -10 5 -10 -4 -14 -2 -10 8 6 16
-18 42 -28 31z"/>
<path d="M3351 3277 c2 -1 15 -11 29 -22 l25 -20 -19 23 c-11 12 -24 22 -29
22 -6 0 -8 -1 -6 -3z"/>
<path d="M2815 3240 c3 -5 8 -10 11 -10 2 0 4 5 4 10 0 6 -5 10 -11 10 -5 0
-7 -4 -4 -10z"/>
<path d="M2865 3240 c3 -5 8 -10 11 -10 2 0 4 5 4 10 0 6 -5 10 -11 10 -5 0
-7 -4 -4 -10z"/>
<path d="M2860 3189 c0 -5 5 -7 10 -4 6 3 10 8 10 11 0 2 -4 4 -10 4 -5 0 -10
-5 -10 -11z"/>
<path d="M2730 3140 c0 -5 5 -10 10 -10 6 0 10 5 10 10 0 6 -4 10 -10 10 -5 0
-10 -4 -10 -10z"/>
<path d="M3606 3137 c3 -10 9 -15 12 -12 3 3 0 11 -7 18 -10 9 -11 8 -5 -6z"/>
<path d="M3530 3116 c0 -2 8 -10 18 -17 15 -13 16 -12 3 4 -13 16 -21 21 -21
13z"/>
<path d="M3661 2804 c0 -11 3 -14 6 -6 3 7 2 16 -1 19 -3 4 -6 -2 -5 -13z"/>
<path d="M1363 2593 c2 -11 9 -28 16 -37 7 -8 10 -19 7 -24 -3 -5 1 -9 9 -9
10 0 11 5 4 19 -5 10 -7 23 -4 28 4 6 -1 7 -11 3 -10 -4 -15 -2 -11 3 3 6 1
16 -4 24 -7 12 -8 10 -6 -7z"/>
<path d="M1386 2427 c3 -10 9 -15 12 -12 3 3 0 11 -7 18 -10 9 -11 8 -5 -6z"/>
<path d="M1400 2386 c0 -2 7 -9 15 -16 13 -11 14 -10 9 4 -5 14 -24 23 -24 12z"/>
<path d="M1370 2376 c0 -2 7 -7 16 -10 8 -3 12 -2 9 4 -6 10 -25 14 -25 6z"/>
<path d="M1410 2261 c0 -6 5 -13 10 -16 6 -4 8 -11 5 -16 -3 -5 1 -6 11 -2 15
5 15 7 0 15 -9 5 -14 13 -11 19 4 5 1 9 -4 9 -6 0 -11 -4 -11 -9z"/>
<path d="M1545 2203 c-11 -2 -41 -11 -68 -19 -43 -14 -50 -21 -73 -71 -21 -44
-25 -65 -22 -109 5 -60 23 -91 81 -138 33 -26 44 -29 109 -30 80 0 115 13 160
61 93 99 47 259 -86 298 -50 15 -65 16 -101 8z m90 -118 c19 -18 25 -35 25
-65 0 -81 -83 -120 -135 -64 -53 57 -18 154 55 154 19 0 40 -9 55 -25z"/>
<path d="M1965 2201 c-55 -14 -95 -41 -122 -83 -50 -76 -32 -187 39 -242 43
-32 112 -50 163 -41 42 6 125 49 125 64 0 5 -16 23 -36 40 l-35 31 -26 -20
c-60 -47 -138 -7 -138 72 0 74 80 113 138 68 l26 -20 35 30 c19 17 33 37 30
44 -15 38 -136 73 -199 57z"/>
<path d="M900 2021 l0 -181 55 0 54 0 3 78 3 77 39 -63 c33 -54 42 -63 64 -60
20 2 35 17 62 63 l35 60 3 -78 3 -77 54 0 55 0 0 149 c0 82 3 163 6 180 l7 31
-56 0 -55 0 -51 -90 c-29 -49 -55 -92 -60 -94 -4 -3 -32 37 -62 87 l-55 92
-52 3 -52 3 0 -180z"/>
<path d="M1416 2192 c-3 -4 4 -9 15 -9 23 -2 25 3 4 10 -8 4 -16 3 -19 -1z"/>
<path d="M2210 2020 l0 -180 60 0 60 0 0 49 c0 78 19 81 71 11 l44 -59 68 -1
c37 0 67 1 67 3 0 2 -31 46 -70 97 -38 51 -70 97 -70 102 0 4 30 41 67 80 l66
73 -61 3 -62 3 -59 -63 -60 -63 -1 63 0 62 -60 0 -60 0 0 -180z"/>
<path d="M2600 2020 l0 -180 40 0 39 0 3 103 3 102 49 -83 c63 -107 73 -107
141 8 l50 85 3 -107 3 -108 34 0 35 0 0 181 0 180 -32 -3 c-29 -3 -38 -13 -96
-110 -36 -59 -68 -106 -72 -103 -4 3 -36 52 -70 110 -59 100 -64 105 -96 105
l-34 0 0 -180z"/>
<path d="M3127 2026 c-42 -95 -77 -176 -77 -180 0 -3 17 -6 38 -6 36 0 40 3
55 40 l15 40 85 0 85 0 16 -40 c11 -29 22 -40 37 -40 13 0 18 -4 13 -12 -6
-10 -4 -10 8 0 12 10 17 10 20 1 2 -7 12 -13 21 -15 9 -1 15 2 11 7 -3 5 -10
7 -15 4 -5 -4 -9 -1 -9 4 0 10 14 15 33 12 5 -1 6 3 2 9 -3 6 -12 7 -18 4 -7
-4 -9 -4 -5 0 3 4 -4 22 -16 40 -12 17 -48 93 -81 169 l-60 137 -40 0 -40 0
-78 -174z m173 -38 c0 -5 -25 -8 -56 -8 -63 0 -62 -2 -21 90 l20 45 28 -60
c15 -33 28 -63 29 -67z"/>
<path d="M3440 2165 l0 -35 60 0 60 0 -1 -47 c0 -27 -4 -69 -8 -95 -5 -29 -4
-45 2 -41 5 3 8 -18 5 -51 l-3 -56 43 0 42 0 0 145 0 145 55 0 55 0 0 35 0 35
-155 0 -155 0 0 -35z"/>
<path d="M3800 2020 l0 -180 141 0 140 0 -3 33 -3 32 -95 0 -95 0 -3 43 -3 42
85 0 86 0 0 30 0 30 -85 0 -85 0 0 40 0 40 95 0 95 0 0 35 0 35 -135 0 -135 0
0 -180z"/>
<path d="M3469 1923 c-13 -16 -12 -17 4 -4 16 13 21 21 13 21 -2 0 -10 -8 -17
-17z"/>
<path d="M3489 1918 c-5 -18 -6 -38 -1 -34 7 8 12 36 6 36 -2 0 -4 -1 -5 -2z"/>
<path d="M3460 1881 c0 -6 4 -13 10 -16 6 -3 7 1 4 9 -7 18 -14 21 -14 7z"/>
<path d="M3370 1799 c0 -5 5 -7 10 -4 6 3 10 8 10 11 0 2 -4 4 -10 4 -5 0 -10
-5 -10 -11z"/>
<path d="M3415 1790 c-16 -7 -17 -9 -3 -9 9 -1 20 4 23 9 7 11 7 11 -20 0z"/>
<path d="M3362 1768 c3 -7 -7 -22 -21 -35 -14 -13 -20 -22 -12 -21 7 2 16 -3
19 -11 3 -8 0 -11 -7 -7 -6 4 -9 2 -5 -7 2 -7 0 -26 -5 -40 -12 -30 -9 -32 19
-15 16 10 24 10 41 0 32 -20 35 -6 11 44 -15 31 -27 44 -37 40 -26 -10 -25 11
0 28 14 9 23 21 20 26 -9 14 -27 12 -23 -2z m17 -107 c-15 -5 -22 6 -14 19 6
9 10 9 16 -1 5 -8 4 -15 -2 -18z"/>
<path d="M3305 1730 c-14 -16 -26 -18 -61 -13 l-44 6 0 -47 c0 -46 11 -68 39
-74 12 -3 12 0 1 13 -7 8 -9 19 -5 23 4 4 10 1 12 -5 10 -28 32 -11 38 30 4
23 16 52 28 65 11 12 18 22 15 22 -3 0 -13 -9 -23 -20z m-47 -47 c2 -8 -5 -13
-17 -13 -12 0 -21 6 -21 16 0 18 31 15 38 -3z"/>
<path d="M1212 1673 c-21 -49 -21 -66 0 -45 16 16 55 15 61 0 2 -7 8 -10 13
-5 9 9 -31 97 -45 97 -4 0 -18 -21 -29 -47z m34 -10 c-10 -10 -19 5 -10 18 6
11 8 11 12 0 2 -7 1 -15 -2 -18z"/>
<path d="M1342 1711 c-21 -13 -10 -46 16 -49 30 -5 28 -22 -3 -22 -14 0 -25
-4 -25 -10 0 -16 56 -11 71 6 11 14 10 18 -6 30 -10 8 -25 14 -32 14 -7 0 -13
5 -13 10 0 6 12 10 26 10 14 0 23 4 19 10 -8 12 -35 13 -53 1z"/>
<path d="M1455 1707 c-22 -17 -13 -34 23 -49 l27 -11 -35 -7 c-26 -5 -31 -8
-18 -14 26 -12 62 -3 66 16 2 11 -6 22 -22 29 -31 14 -35 34 -6 26 24 -6 36 8
14 17 -22 9 -28 8 -49 -7z"/>
<path d="M1560 1670 l0 -50 40 0 c22 0 40 5 40 10 0 6 -13 10 -30 10 -16 0
-30 5 -30 10 0 6 11 10 25 10 14 0 25 5 25 10 0 6 -11 10 -25 10 -14 0 -25 4
-25 10 0 5 10 9 21 7 12 -1 24 4 26 11 3 8 -7 12 -31 12 l-36 0 0 -50z"/>
<path d="M1687 1713 c-16 -15 -5 -44 21 -55 l27 -12 -32 -4 c-18 -2 -33 -7
-33 -13 0 -18 59 -13 79 6 18 18 -1 45 -33 46 -18 1 -18 2 7 13 15 7 24 15 21
19 -9 9 -49 9 -57 0z"/>
<path d="M1802 1708 c-20 -20 -14 -35 21 -49 l32 -13 -32 -3 c-18 -3 -33 -8
-33 -14 0 -15 57 -10 71 7 11 14 10 18 -6 30 -10 8 -22 14 -27 14 -4 0 -8 5
-8 11 0 7 9 9 21 6 13 -3 19 -1 16 6 -5 17 -40 20 -55 5z"/>
<path d="M1975 1703 c5 -10 13 -33 19 -50 11 -34 26 -44 26 -19 0 8 9 31 21
50 12 20 16 36 10 36 -6 0 -16 -10 -22 -22 l-12 -22 -17 22 c-22 26 -35 29
-25 5z"/>
<path d="M2112 1704 c-26 -18 -28 -46 -6 -68 22 -23 60 -20 78 6 20 29 20 34
-4 58 -24 24 -38 25 -68 4z m53 -34 c0 -18 -6 -26 -21 -28 -26 -4 -40 24 -23
45 18 21 44 11 44 -17z"/>
<path d="M2240 1681 c0 -43 18 -64 52 -59 24 3 46 54 34 83 -10 26 -26 7 -26
-31 0 -28 -4 -35 -17 -32 -13 2 -19 14 -21 41 -4 49 -22 48 -22 -2z"/>
<path d="M2377 1713 c-4 -3 -7 -26 -7 -50 0 -32 4 -43 15 -43 8 0 15 7 15 15
0 8 5 15 10 15 6 0 13 -7 16 -15 4 -8 13 -15 21 -15 13 0 13 3 3 15 -10 12
-10 19 -2 27 16 16 15 24 -4 42 -16 16 -55 22 -67 9z m51 -30 c-5 -25 -28 -28
-28 -4 0 12 6 21 16 21 9 0 14 -7 12 -17z"/>
<path d="M2570 1670 c0 -27 5 -50 10 -50 6 0 10 6 10 14 0 9 12 16 27 18 55 6
33 68 -24 68 -21 0 -23 -4 -23 -50z m56 19 c7 -12 -15 -31 -28 -23 -4 3 -8 12
-8 20 0 17 26 19 36 3z"/>
<path d="M2700 1670 c0 -27 5 -50 10 -50 6 0 10 7 10 15 0 8 5 15 10 15 6 0
13 -7 16 -15 4 -8 13 -15 21 -15 12 0 13 3 4 14 -8 10 -9 16 -1 21 31 19 -3
65 -49 65 -18 0 -21 -6 -21 -50z m56 19 c3 -6 0 -15 -7 -20 -22 -14 -29 -11
-29 11 0 21 24 27 36 9z"/>
<path d="M2827 1713 c-4 -3 -7 -26 -7 -50 l0 -43 40 0 c22 0 40 5 40 10 0 6
-11 10 -25 10 -14 0 -25 5 -25 10 0 6 9 10 20 10 11 0 20 5 20 10 0 6 -9 10
-20 10 -11 0 -20 5 -20 10 0 6 12 10 26 10 14 0 23 4 19 10 -7 11 -58 14 -68
3z"/>
<path d="M2947 1713 c-4 -3 -7 -26 -7 -50 0 -32 4 -43 15 -43 8 0 15 7 15 15
0 8 8 15 18 15 18 0 42 18 42 31 0 27 -64 51 -83 32z m51 -30 c-5 -25 -28 -28
-28 -4 0 12 6 21 16 21 9 0 14 -7 12 -17z"/>
<path d="M3082 1673 c-21 -49 -21 -66 0 -45 15 15 58 16 58 2 0 -5 7 -10 15
-10 12 0 10 10 -10 50 -14 28 -29 50 -34 50 -5 0 -18 -21 -29 -47z m34 -10
c-10 -10 -19 5 -10 18 6 11 8 11 12 0 2 -7 1 -15 -2 -18z"/>
<path d="M3450 1710 c0 -5 7 -10 15 -10 11 0 15 -11 15 -40 0 -29 4 -40 15
-40 11 0 15 11 15 40 0 29 4 40 15 40 8 0 15 5 15 10 0 6 -20 10 -45 10 -25 0
-45 -4 -45 -10z"/>
<path d="M3576 1713 c-3 -3 -6 -26 -6 -50 0 -32 4 -43 15 -43 11 0 15 12 15
44 0 43 -10 63 -24 49z"/>
<path d="M3657 1702 c-21 -23 -22 -46 -1 -66 22 -22 60 -20 78 5 35 50 -36
106 -77 61z m58 -32 c0 -18 -6 -26 -21 -28 -26 -4 -40 24 -23 45 18 21 44 11
44 -17z"/>
<path d="M3790 1670 c0 -27 5 -50 10 -50 6 0 10 12 10 28 l1 27 24 -27 c13
-16 29 -28 35 -28 13 0 13 87 0 95 -6 4 -10 -5 -10 -19 0 -33 -15 -33 -36 -1
-24 37 -34 30 -34 -25z"/>
<path d="M3155 1601 c-3 -5 -2 -12 3 -15 5 -3 9 1 9 9 0 17 -3 19 -12 6z"/>
<path d="M3203 1585 c0 -8 4 -12 9 -9 5 3 6 10 3 15 -9 13 -12 11 -12 -6z"/>
<path d="M3126 1575 c-4 -10 -2 -14 5 -9 6 4 15 0 20 -7 5 -8 9 -9 9 -3 0 6
-6 17 -14 23 -11 9 -15 8 -20 -4z"/>
<path d="M1877 1469 c7 -7 15 -10 18 -7 3 3 -2 9 -12 12 -14 6 -15 5 -6 -5z"/>
<path d="M2898 1423 c7 -3 16 -2 19 1 4 3 -2 6 -13 5 -11 0 -14 -3 -6 -6z"/>
<path d="M3075 1420 c-3 -6 1 -7 9 -4 18 7 21 14 7 14 -6 0 -13 -4 -16 -10z"/>
</g>
</svg>
